/* XPM */
static char *e32e0e7413454f14ec0fab94f88c0ceeD09k3upaNftUNku9[] = {
/* columns rows colors chars-per-pixel */
"128 128 11 1 ",
"  c black",
". c #394A41",
"X c #4A6A52",
"o c #6A8B5A",
"O c #6AA44A",
"+ c #83C54A",
"@ c #B4E652",
"# c #40B080",
"$ c #70C0A0",
"% c #A0D0C0",
"& c white",
/* pixels */
"$$$$$$$$$$$$$$$$$$%%$$$$$$$$$$$$$$$$$$$$$$$$$$$$$$%%$$$$$$$$$$$$$$$$$$$$$$$$$$$$$$%%$$$$$$$$$$$$$$$$$$$$$$$$$$$$$$%%$$$$$$$$$$$$",
"$$$$$$$$$$$$$$$$$$$$$$$$%%%%$$$$$$$$$$$$$$$$$$$$$$$$$$$$%%%%$$$$$$$$$$$$$$$$$$$$$$$$$$$$%%%%$$$$$$$$$$$$$$$$$$$$$$$$$$$$%%%%$$$$",
"$$$$$$$$$$$$$$$$$$$$$$$$%%%%$$$$$$$$$$$$$$$$$$$$$$$$$$$$%%%%$$$$$$$$$$$$$$$$$$$$$$$$$$$$%%%%$$$$$$$$$$$$$$$$$$$$$$$$$$$$%%%%$$$$",
"$$$$$$$$$$$$$$$$$$##$$$$%%%%$$$$$$$$$$$$$$$$$$$$$$##$$$$%%%%$$$$$$$$$$$$$$$$$$$$$$##$$$$%%%%$$$$$$$$$$$$$$$$$$$$$$##$$$$%%%%$$$$",
"$$$$$$$$$$$$$$$$$$##$$$$%%%%$$$$$$$$$$$$$$$$$$$$$$##$$$$%%%%$$$$$$$$$$$$$$$$$$$$$$##$$$$%%%%$$$$$$$$$$$$$$$$$$$$$$##$$$$%%%%$$$$",
"$$%%$$$$##$$$$$$$$$$$$$$$$$$$$##$$%%$$$$##$$$$$$$$$$$$$$$$$$$$##$$%%$$$$##$$$$$$$$$$$$$$$$$$$$##$$%%$$$$##$$$$$$$$$$$$$$$$$$$$##",
"$$%%$$$$##$$$$$$$$$$$$$$$$$$$$##$$%%$$$$##$$$$$$$$$$$$$$$$$$$$##$$%%$$$$##$$$$$$$$$$$$$$$$$$$$##$$%%$$$$##$$$$$$$$$$$$$$$$$$$$##",
"$$$$$$$$$$$$$$$$$$$$$$$$$$$$$$$$$$$$$$$$$$$$$$$$$$$$$$$$$$$$$$$$$$$$$$$$$$$$$$$$$$$$$$$$$$$$$$$$$$$$$$$$$$$$$$$$$$$$$$$$$$$$$$$$",
"$$$$$$$$$$$$$$$$$$$$$$$$$$$$$$$$$$$$$$$$$$$$$$$$$$$$$$$$$$$$$$$$$$$$$$$$$$$$$$$$$$$$$$$$$$$$$$$$$$$$$$$$$$$$$$$$$$$$$$$$$$$$$$$$",
"$$$$$$##$$$$$$$$$$$$$$##$$$$$$%%$$$$$$##$$$$$$$$$$$$$$##$$$$$$%%$$$$$$##$$$$$$$$$$$$$$##$$$$$$%%$$$$$$##$$$$$$$$$$$$$$##$$$$$$%%",
"$$$$$$##$$$$$$$$$$$$$$##$$$$$$%%$$$$$$##$$$$$$$$$$$$$$##$$$$$$%%$$$$$$##$$$$$$$$$$$$$$##$$$$$$%%$$$$$$##$$$$$$$$$$$$$$##$$$$$$%%",
"$$$$$$$$$$$$$$##$$$$%%%%$$$$$$$$$$$$$$$$$$$$$$##$$$$%%%%$$$$$$$$$$$$$$$$$$$$$$##$$$$%%%%$$$$$$$$$$$$$$$$$$$$$$##$$$$%%%%$$$$$$$$",
"$$$$$$$$$$$$$$##$$$$%%%%$$$$$$$$$$$$$$$$$$$$$$##$$$$%%%%$$$$$$$$$$$$$$$$$$$$$$##$$$$%%%%$$$$$$$$$$$$$$$$$$$$$$##$$$$%%%%$$$$$$$$",
"$$$$$$$$$$$$$$$$$$##%%%%$$$$$$$$$$$$$$$$$$$$$$$$$$##%%%%$$$$$$$$$$$$$$$$$$$$$$$$$$##%%%%$$$$$$$$$$$$$$$$$$$$$$$$$$##%%%%$$$$$$$$",
"$$$$$$$$$$$$$$$$$$##%%%%$$$$$$$$$$$$$$$$$$$$$$$$$$##%%%%$$$$$$$$$$$$$$$$$$$$$$$$$$##%%%%$$$$$$$$$$$$$$$$$$$$$$$$$$##%%%%$$$$$$$$",
"$$%%$$$$$$$$$$$$$$$$$$$$$$$$$$$$$$%%$$$$$$$$$$$$$$$$$$$$$$$$$$$$$$%%$$$$$$$$$$$$$$$$$$$$$$$$$$$$$$%%$$$$$$$$$$$$$$$$$$$$$$$$$$$$",
"$$%%$$$$$$$$$$$$$$$$$$$$$$$$$$$$$$%%$$$$$$$$$$$$$$$$$$$$$$$$$$$$$$%%$$$$$$$$$$$$$$$$$$$$$$$$$$$$$$%%$$$$$$$$$$$$$$$$$$$$$$$$$$$$",
"$$$$$$$$%%%%$$$$$$$$$$$$$$$$$$$$$$$$$$$$%%%%$$$$$$$$$$$$$$$$$$$$$$$$$$$$%%%%$$$$$$$$$$$$$$$$$$$$$$$$$$$$%%%%$$$$$$$$$$$$$$$$$$$$",
"$$$$$$$$%%%%$$$$$$$$$$$$$$$$$$$$$$$$$$$$%%%%$$$$$$$$$$$$$$$$$$$$$$$$$$$$%%%%$$$$$$$$$$$$$$$$$$$$$$$$$$$$%%%%$$$$$$$$$$$$$$$$$$$$",
"$$##$$$$%%%%$$$$$$$$$$$$$$$$$$$$$$##$$$$%%%%$$$$$$$$$$$$$$$$$$$$$$##$$$$%%%%$$$$$$$$$$$$$$$$$$$$$$##$$$$%%%%$$$$$$$$$$$$$$$$$$$$",
"$$##$$$$%%%%$$$$$$$$$$$$$$$$$$$$$$##$$$$%%%%$$$$$$$$$$$$$$$$$$$$$$##$$$$%%%%$$$$$$$$$$$$$$$$$$$$$$##$$$$%%%%$$$$$$$$$$$$$$$$$$$$",
"$$$$$$$$$$$$$$##$$%%$$$$##$$$$$$$$$$$$$$$$$$$$##$$%%$$$$##$$$$$$$$$$$$$$$$$$$$##$$%%$$$$##$$$$$$$$$$$$$$$$$$$$##$$%%$$$$##$$$$$$",
"$$$$$$$$$$$$$$##$$%%$$$$##$$$$$$$$$$$$$$$$$$$$##$$%%$$$$##$$$$$$$$$$$$$$$$$$$$##$$%%$$$$##$$$$$$$$$$$$$$$$$$$$##$$%%$$$$##$$$$$$",
"$$$$$$$$$$$$$$$$$$$$$$$$$$$$$$$$$$$$$$$$$$$$$$$$$$$$$$$$$$$$$$$$$$$$$$$$$$$$$$$$$$$$$$$$$$$$$$$$$$$$$$$$$$$$$$$$$$$$$$$$$$$$$$$$",
"$$$$$$$$$$$$$$$$$$$$$$$$$$$$$$$$$$$$$$$$$$$$$$$$$$$$$$$$$$$$$$$$$$$$$$$$$$$$$$$$$$$$$$$$$$$$$$$$$$$$$$$$$$$$$$$$$$$$$$$$$$$$$$$$",
"$$$$$$##$$$$$$%%$$$$$$##$$$$$$$$$$$$$$##$$$$$$%%$$$$$$##$$$$$$$$$$$$$$##$$$$$$%%$$$$$$##$$$$$$$$$$$$$$##$$$$$$%%$$$$$$##$$$$$$$$",
"$$$$$$##$$$$$$%%$$$$$$##$$$$$$$$$$$$$$##$$$$$$%%$$$$$$##$$$$$$$$$$$$$$##$$$$$$%%$$$$$$##$$$$$$$$$$$$$$##$$$$$$%%$$$$$$##$$$$$$$$",
"$$$$%%%%$$$$$$$$$$$$$$$$$$$$$$##$$$$%%%%$$$$$$$$$$$$$$$$$$$$$$##$$$$%%%%$$$$$$$$$$$$$$$$$$$$$$##$$$$%%%%$$$$$$$$$$$$$$$$$$$$$$##",
"$$$$%%%%$$$$$$$$$$$$$$$$$$$$$$##$$$$%%%%$$$$$$$$$$$$$$$$$$$$$$##$$$$%%%%$$$$$$$$$$$$$$$$$$$$$$##$$$$%%%%$$$$$$$$$$$$$$$$$$$$$$##",
"$$##%%%%$$$$$$$$$$$$$$$$$$$$$$$$$$##%%%%$$$$$$$$$$$$$$$$$$$$$$$$$$##%%%%$$$$$$$$$$$$$$$$$$$$$$$$$$##%%%%$$$$$$$$$$$$$$$$$$$$$$$$",
"$$##%%%%$$$$$$$$$$$$$$$$$$$$$$$$$$##%%XXXX$$$$$$$$$$$$$$$$$$$$$$$$##%%%%$$$$$$$$$$$$$$$$$$$$$$$$$$##%%%%$$$$$$$$$$$$$$$$$$$$$$$$",
"$$$$$$$$$$$$$$$$$$%%$$$$$$$$$$$$$$$$$$XXXX$$$$$$$$%%$$$$$$$$$$$$$$$$$$$$$$$$$$$$$$%%$$$$$$$$$$$$$$$$$$$$$$$$$$$$$$%%$$$$$$$$$$$$",
"$$$$$$$$$$$$$$$$$$%%$$$$$$$$$$$$$$$$XX@@@@XX$$$$$$%%$$$$$$$$$$$$$$$$$$$$$$$$$$$$$$%%$$$$$$$$$$$$$$$$$$$$$$$$$$$$$$%%$$$$$$$$$$$$",
"$$$$$$$$$$$$$$$$$$$$$$$$%%%%$$$$$$$$XX@@@@XX$$$$$$$$$$$$%%%%$$$$$$$$$$$$$$$$$$$$$$$$$$$$%%%%$$$$$$$$$$$$$$$$$$$$$$$$$$$$%%%%$$$$",
"$$$$$$$$$$$$$$$$$$$$$$$$%%%%$$$$$$$$XX@@@@..$$$$$$$$$$$$%%%%$$$$$$$$$$$$$$$$$$$$$$$$$$$$%%%%$$$$$$$$$$$$$$$$$$$$$$$$$$$$%%%%$$$$",
"$$$$$$$$$$$$$$$$$$##$$$$%%%%$$$$$$$$XX@@@@..$$$$$$##$$$$%%%%$$$$$$$$$$$$$$$$$$$$$$##$$$$%%%%$$$$$$$$$$$$$$$$$$$$$$##$$$$%%%%$$$$",
"$$$$$$$$$$$$$$$$$$##$$$$%%%%$$$$$$XX@@@@++++..$$$$##$$$$%%%%$$$$$$$$$$$$$$$$$$$$$$##$$$$%%%%$$$$$$$$$$$$$$$$$$$$$$##$$$$%%%%$$$$",
"$$%%$$$$##$$$$$$$$$$$$$$$$$$$$##$$XX@@@@++++..$$$$$$$$$$$$$$$$##$$%%$$$$##$$$$$$$$$$$$$$$$$$$$##$$%%$$$$##$$$$$$$$$$$$$$$$$$$$##",
"$$%%$$$$##$$$$$$$$$$$$$$$$$$$$##$$XX@@@@++++++..$$$$$$$$$$$$$$##$$%%$$$$##$$$$$$$$$$$$$$$$$$$$##$$%%$$$$##$$$$$$$$$$$$$$$$$$$$##",
"$$$$$$$$$$$$$$$$$$$$$$$$$$$$$$$$$$XX@@@@++++++..$$$$$$$$$$$$$$$$$$$$$$$$$$$$$$$$$$$$$$$$$$$$$$$$$$$$$$$$$$$$$$$$$$$$$$$$$$$$$$$$",
"$$$$$$$$$$$$$$$$$$$$$$$$$$$$$$$$..++@@++++++++oo  $$$$$$$$$$$$$$$$$$$$$$$$$$$$$$$$$$$$$$$$$$$$$$$$$$$$$$$$$$$$$$$$$$$$$$$$$$$$$$",
"$$$$$$##$$$$$$$$$$$$$$##$$$$$$%%..++@@++++++++oo  $$$$##$$$$$$%%$$$$$$##$$$$$$$$$$$$$$##$$$$$$%%$$$$$$##$$$$$$$$$$$$$$##$$$$$$%%",
"$$$$$$##$$$$$$$$$$$$$$##$$$$$$%%..++@@++++++++OOoo  $$##$$$$$$%%$$$$$$##$$$$$$$$$$$$$$##$$$$$$%%$$$$$$##$$$$$$$$$$$$$$##$$$$$$%%",
"$$$$$$$$$$$$$$##$$$$%%%%$$$$$$$$..++@@++++++++OOoo  %%%%$$$$$$$$$$$$$$$$$$$$$$##$$$$%%%%$$$$$$$$$$$$$$$$$$$$$$##$$$$%%%%$$$$$$$$",
"$$$$$$$$$$$$$$##$$$$%%%%$$$$$$$$..++++++++++++++oooo    $$$$$$$$$$$$$$$$$$$$$$##$$$$%%%%$$$$$$$$$$$$$$$$$$$$$$##$$$$%%%%$$$$$$$$",
"$$$$$$$$$$$$$$$$$$##%%%%$$$$$$$$..++++++++++++++oooo    $$$$$$$$$$$$$$$$$$$$$$$$$$##%%%%$$$$$$$$$$$$$$$$$$$$$$$$$$##%%%%$$$$$$$$",
"$$$$$$$$$$$$$$$$$$##%%%%$$$$$$$$oo++++++++++++++oooooooo    ..$$$$$$$$$$$$$$$$$$$$##%%%%$$$$$$$$$$$$$$$$$$$$$$$$$$##%%%%$$$$$$$$",
"$$%%$$$$$$$$$$$$$$$$$$$$$$$$$$$$oo++++++++++++++oooooooo    ..$$$$%%$$$$$$$$$$$$$$$$$$$$$$$$$$$$$$%%$$$$$$$$$$$$$$$$$$$$$$$$$$$$",
"$$%%$$$$$$$$$$$$$$$$$$$$$$$$$$..++++++++++++++++OOXX....oo++++oo......$$$$$$$$$$$$$$$$$$$$$$$$$$$$%%$$$$$$$$$$$$$$$$$$$$$$$$$$$$",
"$$$$$$$$%%%%$$$$$$$$$$$$$$$$$$..++++++++++++++++OOXX....oo++++oo......$$%%%%$$$$$$$$$$$$$$$$$$$$$$$$$$$$%%%%$$$$$$$$$$$$$$$$$$$$",
"$$$$$$$$%%%%$$$$$$$$$$$$$$$$$$..++++++++++++++OOXX++++OO..oo++++@@@@@@oo........$$$$$$$$$$$$$$$$$$$$$$$$%%%%$$$$$$$$$$$$$$$$$$$$",
"$$##$$$$%%%%$$$$$$$$$$$$$$$$$$..++++++++++++++OOXX++++OO..oo++++@@@@@@oo........$$$$$$$$$$$$$$$$$$##$$$$%%%%$$$$$$$$$$$$$$$$$$$$",
"$$##$$$$%%%%$$$$$$$$$$$$$$$$$$..++++++++++++++XXoo++++OOoo..OO++++@@@@@@++++++OO  $$$$$$$$$$$$$$$$##$$$$%%%%$$$$$$$$$$$$$$$$$$$$",
"$$$$$$$$$$$$$$##$$%%$$$$##$$$$..++++++++++++++XXoo++++OOoo..OO++++@@@@@@++++++OO  %%$$$$##$$$$$$$$$$$$$$$$$$$$##$$%%$$$$##$$$$$$",
"$$$$$$$$$$$$$$##$$%%$$$$##$$$$..++++++++++++++..&&    oooo..ooooOO++++++++++OOoo  %%$$$$##$$$$$$$$$$$$$$$$$$$$##$$%%$$$$##$$$$$$",
"$$$$$$$$$$$$$$$$$$$$$$$$$$$$$$..++++++++++++++..&&    oooo..ooooOO++++++++++OOoo  $$$$$$$$$$$$$$$$$$$$$$$$$$$$$$$$$$$$$$$$$$$$$$",
"$$$$$$$$$$$$$$$$$$$$$$$$$$$$$$..++++++++++++++..&&    &&++..ooooooooOO++++OOoo..$$$$$$$$$$$$$$$$$$$$$$$$$$$$$$$$$$$$$$$$$$$$$$$$",
"$$$$$$##$$$$$$%%$$$$$$##$$$$$$..++++++++++++++..&&    &&++..ooooooooOO++++OOoo..$$$$$$##$$$$$$$$$$$$$$##$$$$$$%%$$$$$$##$$$$$$$$",
"$$$$$$##$$$$$$%%$$$$$$##$$$$$$$$ooOO++++++++++oo..&&&&&&..oooooooooooooooooooo  $$$$$$##$$$$$$$$$$$$$$##$$$$$$%%$$$$$$##$$$$$$$$",
"$$$$%%%%$$$$$$$$$$$$$$$$$$$$$$##ooOO++++++++++oo..&&&&&&..oooooooooooooooooooo  $$$$$$$$$$$$$$##$$$$%%%%$$$$$$$$$$$$$$$$$$$$$$##",
"$$$$%%%%$$$$$$$$$$$$$$$$$$$$$$##..oooo++++++++++XX......oooooooooooooooooooo..$$$$$$$$$$$$$$$$##$$$$%%%%$$$$$$$$$$$$$$$$$$$$$$##",
"$$##%%%%$$$$$$$$$$$$$$$$$$$$$$$$..oooo++++++++++XX......oooooooooooooooooooo..$$$$$$$$$$$$$$$$$$$$##%%%%$$$$$$$$$$$$$$$$$$$$$$$$",
"$$##%%%%$$$$$$$$$$$$$$$$$$$$$$$$..++++XXOO++++++XXOOoooooooooooooooooooooooo  $$$$$$$$$$$$$$$$$$$$##%%%%$$$$$$$$$$$$$$$$$$$$$$$$",
"$$$$$$$$$$$$$$$$$$%%$$$$$$$$$$$$..++++XXOO++++++XXOOoooooooooooooooooooooooo  $$$$%%$$$$$$$$$$$$$$$$$$$$$$$$$$$$$$%%$$$$$$$$$$$$",
"$$$$$$$$$$$$$$$$$$%%$$$$$$$$$$$$..++++++XXXXooooXX++++OOoooooooooooooooooo  ..$$$$%%$$$$$$$$$$$$$$$$$$$$$$$$$$$$$$%%$$$$$$$$$$$$",
"$$$$$$$$$$$$$$$$$$$$$$$$%%%%$$$$..++++++XXXXooooXX++++OOoooooooooooooooooo  ..$$$$$$$$$$%%%%$$$$$$$$$$$$$$$$$$$$$$$$$$$$%%%%$$$$",
"$$$$$$$$$$$$$$$$$$$$$$$$%%%%$$$$ooXX++++oo++++XXXXXXOO++OOoooooooooooooooooo..$$$$$$$$$$%%%%$$$$$$$$$$$$$$$$$$$$$$$$$$$$%%%%$$$$",
"$$$$$$$$$$$$$$$$$$##$$$$%%%%$$$$ooXX++++oo++++XXXXXXOO++OOoooooooooooooooooo..$$$$##$$$$%%%%$$$$$$$$$$$$$$$$$$$$$$##$$$$%%%%$$$$",
"$$$$$$$$$$$$$$$$$$##$$$$%%%%$$$$..XXoooooo++++oo++++XXXXXXoooooooooooooooooo..$$$$##$$$$%%%%$$$$$$$$$$$$$$$$$$$$$$##$$$$%%%%$$$$",
"$$%%$$$$##$$$$$$$$$$$$$$$$$$$$##..XXoooooo++++oo++++XXXXXXoooooooooooooooooo..$$$$$$$$$$$$$$$$##$$%%$$$$##$$$$$$$$$$$$$$$$$$$$##",
"$$%%$$$$##$$$$$$$$$$$$$$$$$$$$##..++XX++++++++oo++++++++OOXXXXoooooooooooooo++..$$$$$$$$$$$$$$##$$%%$$$$##$$$$$$$$$$$$$$$$$$$$##",
"$$$$$$$$$$$$$$$$$$$$$$$$$$$$$$$$..++XX++++++++oo++++++++OOXXXXoooooooooooooo++..$$$$$$$$$$$$$$$$$$$$$$$$$$$$$$$$$$$$$$$$$$$$$$$$",
"$$$$$$$$$$$$$$$$$$$$$$$$$$$$$$$$..++XXoo++++++XX++++++++ooooXXoooooooooooooo++..$$$$$$$$$$$$$$$$$$$$$$$$$$$$$$$$$$$$$$$$$$$$$$$$",
"$$$$$$##$$$$$$$$$$$$$$##$$$$$$%%..++XXoo++++++XX++++++++ooooXXoooooooooooooo++..$$$$$$##$$$$$$%%$$$$$$##$$$$$$$$$$$$$$##$$$$$$%%",
"$$$$$$##$$$$$$$$$$$$$$##$$$$$$%%$$..++..++++OOXXXXOOooooooooXXoooooooooooooo++++..$$$$##$$$$$$%%$$$$$$##$$$$$$$$$$$$$$##$$$$$$%%",
"$$$$$$$$$$$$$$##$$$$%%%%$$$$$$$$$$..++..++++OOXXXXOOooooooooXXoooooooooooooo++++..$$%%%%$$$$$$$$$$$$$$$$$$$$$$##$$$$%%%%$$$$$$$$",
"$$$$$$$$$$$$$$##$$$$%%%%$$$$$$$$$$..++OO..ooXXooooXXXXooooXXoooooooooooooooooo++..XX%%%%$$$$$$$$$$$$$$$$$$$$$$##$$$$%%%%$$$$$$$$",
"$$$$$$$$$$$$$$$$$$##%%%%$$$$$$$$$$..++OO..ooXXooooXXXXooooXXoooooooooooooooooo++..XX%%%%$$$$$$$$$$$$$$$$$$$$$$$$$$##%%%%$$$$$$$$",
"$$$$$$$$$$$$$$$$$$##%%%%$$$$$$$$$$$$  oooo..ooooooooooXXXXXXoooooooooooooooooooo..++..%%$$$$$$$$$$$$$$$$$$$$$$$$$$##%%%%$$$$$$$$",
"$$%%$$$$$$$$$$$$$$$$$$$$$$$$$$$$$$%%  oooo..ooooooooooXXXXXXoooooooooooooooooooo..++..$$$$$$$$$$$$%%$$$$$$$$$$$$$$$$$$$$$$$$$$$$",
"$$%%$$$$$$$$$$$$$$$$$$$$$$$$$$$$$$%%$$    oo..ooooooooXXoo..oooooooooooooooooooo..++++....$$$$$$$$%%$$$$$$$$$$$$$$$$$$$$$$$$$$$$",
"$$$$$$$$%%%%$$$$$$$$$$$$$$$$$$$$$$$$$$    oo..ooooooooXXoo..oooooooooooooooooooo..++++....$$$$$$$$$$$$$$%%%%$$$$$$$$$$$$$$$$$$$$",
"$$$$$$$$%%%%$$$$$$$$$$$$$$$$$$$$$$$$$$$$%%      ooooXXooooXX..XXoooooooooooooo....XXoo++..XX$$$$$$$$$$$$%%%%$$$$$$$$$$$$$$$$$$$$",
"$$##$$$$%%%%$$$$$$$$$$$$$$$$$$$$$$##$$$$%%      ooooXXooooXX..XXoooooooooooooo....XXoo++..XX$$$$$$##$$$$%%%%$$$$$$$$$$$$$$$$$$$$",
"$$##$$$$%%%%$$$$$$$$$$$$$$$$$$$$$$##$$$$%%%%$$$$  XXoooooooooo......XXoooooooo..oo..oooo..++..XX$$##$$$$%%%%$$$$$$$$$$$$$$$$$$$$",
"$$$$$$$$$$$$$$##$$%%$$$$##$$$$$$$$$$$$$$$$$$$$##  XXoooooooooo......XXoooooooo..oo..oooo..++..XX$$$$$$$$$$$$$$##$$%%$$$$##$$$$$$",
"$$$$$$$$$$$$$$##$$%%$$$$##$$$$$$$$$$$$$$$$$$$$##$$  oooooooooooooooo......XX..XXoooo......oo..++XX....$$$$$$$$##$$%%$$$$##$$$$$$",
"$$$$$$$$$$$$$$$$$$$$$$$$$$$$$$$$$$$$$$$$$$$$$$$$$$  oooooooooooooooo......XX..XXoooo......oo..++XX....$$$$$$$$$$$$$$$$$$$$$$$$$$",
"$$$$$$$$$$$$$$$$$$$$$$$$$$$$$$$$$$$$$$$$$$$$$$$$$$$$    ..oooooooooooooooo..XXoooooooo..oo....oooooo  $$$$$$$$$$$$$$$$$$$$$$$$$$",
"$$$$$$##$$$$$$%%$$$$$$##$$$$$$$$$$$$$$##$$$$$$%%$$$$    ..oooooooooooooooo..XXoooooooo..oo....oooooo  ##$$$$$$%%$$$$$$##$$$$$$$$",
"$$$$$$##$$$$$$%%$$$$$$##$$$$$$$$$$$$$$##$$$$$$%%$$$$$$##      ..oooooo....XX......oo..XXoooo..ooooXX  ##$$$$$$%%$$$$$$##$$$$$$$$",
"$$$$%%%%$$$$$$$$$$$$$$$$$$$$$$##$$$$%%%%$$$$$$$$$$$$$$$$      ..oooooo....XX......oo..XXoooo..ooooXX  %%$$$$$$$$$$$$$$$$$$$$$$##",
"$$$$%%%%$$$$$$$$$$$$$$$$$$$$$$##$$$$%%%%$$$$$$$$$$$$$$$$$$$$$$      ..ooooooooooXX......oo..XXoo    %%%%$$$$$$$$$$$$$$$$$$$$$$##",
"$$##%%%%$$$$$$$$$$$$$$$$$$$$$$$$$$##%%%%$$$$$$$$$$$$$$$$$$$$$$      ..ooooooooooXX......oo..XXoo    %%%%$$$$$$$$$$$$$$$$$$$$$$$$",
"$$##%%%%$$$$$$$$$$$$$$$$$$$$$$$$$$##%%%%$$$$$$$$$$$$$$$$$$$$$$$$$$##      oooo....XXoooo        $$##%%%%$$$$$$$$$$$$$$$$$$$$$$$$",
"$$$$$$$$$$$$$$$$$$%%$$$$$$$$$$$$$$$$$$$$$$$$$$$$$$%%$$$$$$$$$$$$$$$$      oooo....XXoooo        $$$$$$$$$$$$$$$$$$%%$$$$$$$$$$$$",
"$$$$$$$$$$$$$$$$$$%%$$$$$$$$$$$$$$$$$$$$$$$$$$$$$$%%$$$$$$$$$$$$$$$$$$$$$$              $$$$$$$$$$$$$$$$$$$$$$$$$$%%$$$$$$$$$$$$",
"$$$$$$$$$$$$$$$$$$$$$$$$%%%%$$$$$$$$$$$$$$$$$$$$$$$$$$$$%%%%$$$$$$$$$$$$$$              %%%%$$$$$$$$$$$$$$$$$$$$$$$$$$$$%%%%$$$$",
"$$$$$$$$$$$$$$$$$$$$$$$$%%%%$$$$$$$$$$$$$$$$$$$$$$$$$$$$%%%%$$$$$$$$$$$$$$$$$$$$$$$$$$$$%%%%$$$$$$$$$$$$$$$$$$$$$$$$$$$$%%%%$$$$",
"$$$$$$$$$$$$$$$$$$##$$$$%%%%$$$$$$$$$$$$$$$$$$$$$$##$$$$%%%%$$$$$$$$$$$$$$$$$$$$$$##$$$$%%%%$$$$$$$$$$$$$$$$$$$$$$##$$$$%%%%$$$$",
"$$$$$$$$$$$$$$$$$$##$$$$%%%%$$$$$$$$$$$$$$$$$$$$$$##$$$$%%%%$$$$$$$$$$$$$$$$$$$$$$##$$$$%%%%$$$$$$$$$$$$$$$$$$$$$$##$$$$%%%%$$$$",
"$$%%$$$$##$$$$$$$$$$$$$$$$$$$$##$$%%$$$$##$$$$$$$$$$$$$$$$$$$$##$$%%$$$$##$$$$$$$$$$$$$$$$$$$$##$$%%$$$$##$$$$$$$$$$$$$$$$$$$$##",
"$$%%$$$$##$$$$$$$$$$$$$$$$$$$$##$$%%$$$$##$$$$$$$$$$$$$$$$$$$$##$$%%$$$$##$$$$$$$$$$$$$$$$$$$$##$$%%$$$$##$$$$$$$$$$$$$$$$$$$$##",
"$$$$$$$$$$$$$$$$$$$$$$$$$$$$$$$$$$$$$$$$$$$$$$$$$$$$$$$$$$$$$$$$$$$$$$$$$$$$$$$$$$$$$$$$$$$$$$$$$$$$$$$$$$$$$$$$$$$$$$$$$$$$$$$$",
"$$$$$$$$$$$$$$$$$$$$$$$$$$$$$$$$$$$$$$$$$$$$$$$$$$$$$$$$$$$$$$$$$$$$$$$$$$$$$$$$$$$$$$$$$$$$$$$$$$$$$$$$$$$$$$$$$$$$$$$$$$$$$$$$",
"$$$$$$##$$$$$$$$$$$$$$##$$$$$$%%$$$$$$##$$$$$$$$$$$$$$##$$$$$$%%$$$$$$##$$$$$$$$$$$$$$##$$$$$$%%$$$$$$##$$$$$$$$$$$$$$##$$$$$$%%",
"$$$$$$##$$$$$$$$$$$$$$##$$$$$$%%$$$$$$##$$$$$$$$$$$$$$##$$$$$$%%$$$$$$##$$$$$$$$$$$$$$##$$$$$$%%$$$$$$##$$$$$$$$$$$$$$##$$$$$$%%",
"$$$$$$$$$$$$$$##$$$$%%%%$$$$$$$$$$$$$$$$$$$$$$##$$$$%%%%$$$$$$$$$$$$$$$$$$$$$$##$$$$%%%%$$$$$$$$$$$$$$$$$$$$$$##$$$$%%%%$$$$$$$$",
"$$$$$$$$$$$$$$##$$$$%%%%$$$$$$$$$$$$$$$$$$$$$$##$$$$%%%%$$$$$$$$$$$$$$$$$$$$$$##$$$$%%%%$$$$$$$$$$$$$$$$$$$$$$##$$$$%%%%$$$$$$$$",
"$$$$$$$$$$$$$$$$$$##%%%%$$$$$$$$$$$$$$$$$$$$$$$$$$##%%%%$$$$$$$$$$$$$$$$$$$$$$$$$$##%%%%$$$$$$$$$$$$$$$$$$$$$$$$$$##%%%%$$$$$$$$",
"$$$$$$$$$$$$$$$$$$##%%%%$$$$$$$$$$$$$$$$$$$$$$$$$$##%%%%$$$$$$$$$$$$$$$$$$$$$$$$$$##%%%%$$$$$$$$$$$$$$$$$$$$$$$$$$##%%%%$$$$$$$$",
"$$%%$$$$$$$$$$$$$$$$$$$$$$$$$$$$$$%%$$$$$$$$$$$$$$$$$$$$$$$$$$$$$$%%$$$$$$$$$$$$$$$$$$$$$$$$$$$$$$%%$$$$$$$$$$$$$$$$$$$$$$$$$$$$",
"$$%%$$$$$$$$$$$$$$$$$$$$$$$$$$$$$$%%$$$$$$$$$$$$$$$$$$$$$$$$$$$$$$%%$$$$$$$$$$$$$$$$$$$$$$$$$$$$$$%%$$$$$$$$$$$$$$$$$$$$$$$$$$$$",
"$$$$$$$$%%%%$$$$$$$$$$$$$$$$$$$$$$$$$$$$%%%%$$$$$$$$$$$$$$$$$$$$$$$$$$$$%%%%$$$$$$$$$$$$$$$$$$$$$$$$$$$$%%%%$$$$$$$$$$$$$$$$$$$$",
"$$$$$$$$%%%%$$$$$$$$$$$$$$$$$$$$$$$$$$$$%%%%$$$$$$$$$$$$$$$$$$$$$$$$$$$$%%%%$$$$$$$$$$$$$$$$$$$$$$$$$$$$%%%%$$$$$$$$$$$$$$$$$$$$",
"$$##$$$$%%%%$$$$$$$$$$$$$$$$$$$$$$##$$$$%%%%$$$$$$$$$$$$$$$$$$$$$$##$$$$%%%%$$$$$$$$$$$$$$$$$$$$$$##$$$$%%%%$$$$$$$$$$$$$$$$$$$$",
"$$##$$$$%%%%$$$$$$$$$$$$$$$$$$$$$$##$$$$%%%%$$$$$$$$$$$$$$$$$$$$$$##$$$$%%%%$$$$$$$$$$$$$$$$$$$$$$##$$$$%%%%$$$$$$$$$$$$$$$$$$$$",
"$$$$$$$$$$$$$$##$$%%$$$$##$$$$$$$$$$$$$$$$$$$$##$$%%$$$$##$$$$$$$$$$$$$$$$$$$$##$$%%$$$$##$$$$$$$$$$$$$$$$$$$$##$$%%$$$$##$$$$$$",
"$$$$$$$$$$$$$$##$$%%$$$$##$$$$$$$$$$$$$$$$$$$$##$$%%$$$$##$$$$$$$$$$$$$$$$$$$$##$$%%$$$$##$$$$$$$$$$$$$$$$$$$$##$$%%$$$$##$$$$$$",
"$$$$$$$$$$$$$$$$$$$$$$$$$$$$$$$$$$$$$$$$$$$$$$$$$$$$$$$$$$$$$$$$$$$$$$$$$$$$$$$$$$$$$$$$$$$$$$$$$$$$$$$$$$$$$$$$$$$$$$$$$$$$$$$$",
"$$$$$$$$$$$$$$$$$$$$$$$$$$$$$$$$$$$$$$$$$$$$$$$$$$$$$$$$$$$$$$$$$$$$$$$$$$$$$$$$$$$$$$$$$$$$$$$$$$$$$$$$$$$$$$$$$$$$$$$$$$$$$$$$",
"$$$$$$##$$$$$$%%$$$$$$##$$$$$$$$$$$$$$##$$$$$$%%$$$$$$##$$$$$$$$$$$$$$##$$$$$$%%$$$$$$##$$$$$$$$$$$$$$##$$$$$$%%$$$$$$##$$$$$$$$",
"$$$$$$##$$$$$$%%$$$$$$##$$$$$$$$$$$$$$##$$$$$$%%$$$$$$##$$$$$$$$$$$$$$##$$$$$$%%$$$$$$##$$$$$$$$$$$$$$##$$$$$$%%$$$$$$##$$$$$$$$",
"$$$$%%%%$$$$$$$$$$$$$$$$$$$$$$##$$$$%%%%$$$$$$$$$$$$$$$$$$$$$$##$$$$%%%%$$$$$$$$$$$$$$$$$$$$$$##$$$$%%%%$$$$$$$$$$$$$$$$$$$$$$##",
"$$$$%%%%$$$$$$$$$$$$$$$$$$$$$$##$$$$%%%%$$$$$$$$$$$$$$$$$$$$$$##$$$$%%%%$$$$$$$$$$$$$$$$$$$$$$##$$$$%%%%$$$$$$$$$$$$$$$$$$$$$$##",
"$$##%%%%$$$$$$$$$$$$$$$$$$$$$$$$$$##%%%%$$$$$$$$$$$$$$$$$$$$$$$$$$##%%%%$$$$$$$$$$$$$$$$$$$$$$$$$$##%%%%$$$$$$$$$$$$$$$$$$$$$$$$",
"$$##%%%%$$$$$$$$$$$$$$$$$$$$$$$$$$##%%%%$$$$$$$$$$$$$$$$$$$$$$$$$$##%%%%$$$$$$$$$$$$$$$$$$$$$$$$$$##%%%%$$$$$$$$$$$$$$$$$$$$$$$$",
"$$$$$$$$$$$$$$$$$$%%$$$$$$$$$$$$$$$$$$$$$$$$$$$$$$%%$$$$$$$$$$$$$$$$$$$$$$$$$$$$$$%%$$$$$$$$$$$$$$$$$$$$$$$$$$$$$$%%$$$$$$$$$$$$"
};
