/* XPM */
static char *_c42342968f84892f829b4a673cdfc2aVKG2TP0sVvx5xpb7[] = {
/* columns rows colors chars-per-pixel */
"128 128 16 1 ",
"  c black",
". c #315A6A",
"X c #4A5A4A",
"o c #784040",
"O c #8B5A52",
"+ c #388800",
"@ c #A08020",
"# c #D89870",
"$ c #398BAC",
"% c #7B839C",
"& c #40B080",
"* c #70C0A0",
"= c #F6B49C",
"- c #A0D0C0",
"; c #C5C5CD",
": c #EEEEFF",
/* pixels */
"******************--******************************--******************************--******************************--************",
"************************----****************************----****************************----****************************----****",
"************************----****************************----****************************----****************************----****",
"******************&&****----**********************&&****----**********************&&****----**********************&&****----****",
"******************&&****----**********************&&****----**********************&&****----**********************&&****----****",
"**--****&&********************&&**--****&&********************&&**--****&&********************&&**--****&&********************&&",
"**--****&&********************&&**--****&&********************&&**--****&&********************&&**--****&&********************&&",
"********************************************************************************************************************************",
"********************************************************************************************************************************",
"******&&**************&&******--******&&**************&&******--******&&**************&&******--******&&**************&&******--",
"******&&**************&&******--******&&**************&&******--******&&**************&&******--******&&**************&&******--",
"**************&&****----**********************&&****----**********************&&****----**********************&&****----********",
"**************&&****----**********************&&****----**********************&&****----**********************&&****----********",
"******************&&----**************************&&----**************************&&----**************************&&----********",
"******************&&----**************************&&----**************************&&----**************************&&----********",
"**--******************************--******************************--******************************--****************************",
"**--******************************--******************************--******************************--****************************",
"********----****************************----****************************----****************************----********************",
"********----****************************----****************************----****************************----********************",
"**&&****----**********************&&****----**********************&&****----**********************&&****----********************",
"**&&****----**********************&&****----**********************&&****----**********************&&****----********************",
"**************&&**--****&&********************&&**--****&&********************&&**--****&&********************&&**--****&&******",
"**************&&**--****&&********************&&**--****&&********************&&**--****&&********************&&**--****&&******",
"********************************************************************************************************************************",
"********************************************************************************************************************************",
"******&&******--******&&**************&&******--******&&**************&&******--******&&**************&&******--******&&********",
"******&&******--******&&**************&&******--******&OOOOOOOOOOOOOOOO&******--******&&**************&&******--******&&********",
"****----**********************&&****----***************OOOOOOOOOOOOOOOO-**********************&&****----**********************&&",
"****----**********************&&****----***************OOOOOOOOOOOOOOOO-**********************&&****----**********************&&",
"**&&----**************************&&----***************OOOOOOOOOOOOOOOO-**************************&&----************************",
"**&&----**************************&&----*******OOOOOOOO================OOOOOOOO*******************&&----************************",
"******************--***************************OOOOOOOO================OOOOOOOO***--******************************--************",
"******************--***************************OOOOOOOO================OOOOOOOO***--******************************--************",
"************************----*******************OOOOOOOO================OOOOOOOO*********----****************************----****",
"************************----***********OOOOOOOO@@@@========================@@@@OOOOOOOO*----****************************----****",
"******************&&****----***********OOOOOOOO@@@@========================@@@@OOOOOOOO*----**********************&&****----****",
"******************&&****----***********OOOOOOOO@@@@========================@@@@OOOOOOOO*----**********************&&****----****",
"**--****&&********************&&**--***OOOOOOOO@@@@========================@@@@OOOOOOOO*******&&**--****&&********************&&",
"**--****&&********************&&**-OOOO====XXXX####========================####XXXX====OOOO***&&**--****&&********************&&",
"***********************************OOOO====XXXX####========================####XXXX====OOOO*************************************",
"***********************************OOOO====XXXX####========================####XXXX====OOOO*************************************",
"******&&**************&&******--***OOOO====XXXX####========================####XXXX====OOOO***--******&&**************&&******--",
"******&&**************&&******-OOOO========XXXX########================########XXXX========OOOO-******&&**************&&******--",
"**************&&****----*******OOOO========XXXX########================########XXXX========OOOO***************&&****----********",
"**************&&****----*******OOOO========XXXX########================########XXXX========OOOO***************&&****----********",
"******************&&----*******OOOO========XXXX########================########XXXX========OOOO*******************&&----********",
"******************&&----*******OOOO====####++++XXXX########################XXXX++++####====OOOO*******************&&----********",
"**--***************************OOOO====####++++XXXX########################XXXX++++####====OOOO***--****************************",
"**--***************************OOOO====####++++XXXX########################XXXX++++####====OOOO***--****************************",
"********----*******************OOOO====####++++XXXX########################XXXX++++####====OOOO*********----********************",
"********----*******************OOOO####========++++XXXXXXXXXXXXXXXXXXXXXXXX++++========####OOOO*********----********************",
"**&&****----*******************OOOO####========++++XXXXXXXXXXXXXXXXXXXXXXXX++++========####OOOO***&&****----********************",
"**&&****----*******************OOOO####========++++XXXXXXXXXXXXXXXXXXXXXXXX++++========####OOOO***&&****----********************",
"**************&&**--****&&*****OOOO####========++++XXXXXXXXXXXXXXXXXXXXXXXX++++========####OOOO***************&&**--****&&******",
"**************&&**--****&&*********    ####====####====####========####====####====####    *******************&&**--****&&******",
"***********************************    ####====####====####========####====####====####    *************************************",
"***********************************    ####====####====####========####====####====####    *************************************",
"******&&******--******&&***********    ####====####====####========####====####====####    ***********&&******--******&&********",
"******&&******--******&&**************&        oooo####====########====####oooo        &**************&&******--******&&********",
"****----**********************&&****---        oooo####====########====####oooo        *******&&****----**********************&&",
"****----**********************&&****---        oooo####====########====####oooo        *******&&****----**********************&&",
"**&&----**************************&&---        oooo####====########====####oooo        ***********&&----************************",
"**&&----**************************&&---    OOOO                                OOOO    ***********&&----************************",
"******************--*******************    OOOO                                OOOO    ***************************--************",
"******************--*******************    OOOO                                OOOO    ***************************--************",
"************************----***********    OOOO                                OOOO    *----****************************----****",
"************************----***************    OOOOOOOO@@@@@@@@@@@@@@@@OOOOOOOO    *****----****************************----****",
"******************&&****----***************    OOOOOOOO@@@@@@@@@@@@@@@@OOOOOOOO    &****----**********************&&****----****",
"******************&&****----***************    OOOOOOOO@@@@@@@@@@@@@@@@OOOOOOOO    &****----**********************&&****----****",
"**--****&&********************&&**--****&&*    OOOOOOOO@@@@@@@@@@@@@@@@OOOOOOOO    ***********&&**--****&&********************&&",
"**--****&&********************&&**--***    ====    OOOOOOOOOOOOOOOOOOOOOOOO    ====    *******&&**--****&&********************&&",
"***************************************    ====    OOOOOOOOOOOOOOOOOOOOOOOO    ====    *****************************************",
"***************************************    ====    OOOOOOOOOOOOOOOOOOOOOOOO    ====    *****************************************",
"******&&**************&&******--******&    ====    OOOOOOOOOOOOOOOOOOOOOOOO    ====    &******--******&&**************&&******--",
"******&&**************&&******--***oooo========;;;;;;;;                ;;;;;;;;========oooo***--******&&**************&&******--",
"**************&&****----***********oooo========;;;;;;;;                ;;;;;;;;========oooo*******************&&****----********",
"**************&&****----***********oooo========;;;;;;;;                ;;;;;;;;========oooo*******************&&****----********",
"******************&&----***********oooo========;;;;;;;;                ;;;;;;;;========oooo***********************&&----********",
"******************&&----***********oooo####;;;;%%%%;;;;;;;;;;;;;;;;;;;;;;;;    ;;;;####oooo***********************&&----********",
"**--******************************-oooo####;;;;%%%%;;;;;;;;;;;;;;;;;;;;;;;;    ;;;;####oooo*******--****************************",
"**--******************************-oooo####;;;;%%%%;;;;;;;;;;;;;;;;;;;;;;;;    ;;;;####oooo*******--****************************",
"********----***********************oooo####;;;;%%%%;;;;;;;;;;;;;;;;;;;;;;;;    ;;;;####oooo*************----********************",
"********----***************************oooo        ;;;;::::::::::::::::;;;;        oooo*****************----********************",
"**&&****----**********************&&***oooo        ;;;;::::::::::::::::;;;;        oooo***********&&****----********************",
"**&&****----**********************&&***oooo        ;;;;::::::::::::::::;;;;        oooo***********&&****----********************",
"**************&&**--****&&*************oooo        ;;;;::::::::::::::::;;;;        oooo*&&********************&&**--****&&******",
"**************&&**--****&&*****************....$$$$....                ....$$$$....-****&&********************&&**--****&&******",
"*******************************************....$$$$....                ....$$$$....*********************************************",
"*******************************************....$$$$....                ....$$$$....*********************************************",
"******&&******--******&&**************&&***....$$$$....                ....$$$$....***&&**************&&******--******&&********",
"******&&******--******&&**************&&***        $$$$$$$$        $$$$$$$$        ***&&**************&&******--******&&********",
"****----**********************&&****----***        $$$$$$$$        $$$$$$$$        ***********&&****----**********************&&",
"****----**********************&&****----***        $$$$$$$$        $$$$$$$$        ***********&&****----**********************&&",
"**&&----**************************&&----***        $$$$$$$$        $$$$$$$$        ***************&&----************************",
"**&&----**************************&&----***    ########    *******&    ########    ***************&&----************************",
"******************--***********************    ########    ********    ########    -******************************--************",
"******************--***********************    ########    ********    ########    -******************************--************",
"************************----***************    ########    -*******    ########    *****----****************************----****",
"************************----*******************        *----***********        *********----****************************----****",
"******************&&****----*******************        *----***********        ***&&****----**********************&&****----****",
"******************&&****----*******************        *----***********        ***&&****----**********************&&****----****",
"**--****&&********************&&**--****&&*****        *******&&**--***        ***************&&**--****&&********************&&",
"**--****&&********************&&**--****&&********************&&**--****&&********************&&**--****&&********************&&",
"********************************************************************************************************************************",
"********************************************************************************************************************************",
"******&&**************&&******--******&&**************&&******--******&&**************&&******--******&&**************&&******--",
"******&&**************&&******--******&&**************&&******--******&&**************&&******--******&&**************&&******--",
"**************&&****----**********************&&****----**********************&&****----**********************&&****----********",
"**************&&****----**********************&&****----**********************&&****----**********************&&****----********",
"******************&&----**************************&&----**************************&&----**************************&&----********",
"******************&&----**************************&&----**************************&&----**************************&&----********",
"**--******************************--******************************--******************************--****************************",
"**--******************************--******************************--******************************--****************************",
"********----****************************----****************************----****************************----********************",
"********----****************************----****************************----****************************----********************",
"**&&****----**********************&&****----**********************&&****----**********************&&****----********************",
"**&&****----**********************&&****----**********************&&****----**********************&&****----********************",
"**************&&**--****&&********************&&**--****&&********************&&**--****&&********************&&**--****&&******",
"**************&&**--****&&********************&&**--****&&********************&&**--****&&********************&&**--****&&******",
"********************************************************************************************************************************",
"********************************************************************************************************************************",
"******&&******--******&&**************&&******--******&&**************&&******--******&&**************&&******--******&&********",
"******&&******--******&&**************&&******--******&&**************&&******--******&&**************&&******--******&&********",
"****----**********************&&****----**********************&&****----**********************&&****----**********************&&",
"****----**********************&&****----**********************&&****----**********************&&****----**********************&&",
"**&&----**************************&&----**************************&&----**************************&&----************************",
"**&&----**************************&&----**************************&&----**************************&&----************************",
"******************--******************************--******************************--******************************--************"
};
