/* XPM */
static char *eb26f14a71af40c3c52688b94f03e946IuOXCSaXoq7vvzfZ[] = {
/* columns rows colors chars-per-pixel */
"128 128 15 1 ",
"  c black",
". c #315A6A",
"X c #4A5A4A",
"o c #784040",
"O c #8B5A52",
"+ c #388800",
"@ c #A08020",
"# c #D89870",
"$ c #398BAC",
"% c #7B839C",
"& c #40B080",
"* c #70C0A0",
"= c #F6B49C",
"- c #A0D0C0",
"; c #C5C5CD",
/* pixels */
"******************--******************************--******************************--******************************--************",
"************************----****************************----****************************----****************************----****",
"************************----****************************----****************************----****************************----****",
"******************&&****----**********************&&****----**********************&&****----**********************&&****----****",
"******************&&****----**********************&&****----**********************&&****----**********************&&****----****",
"**--****&&********************&&**--****&&********************&&**--****&&********************&&**--****&&********************&&",
"**--****&&********************&&**--****&&********************&&**--****&&********************&&**--****&&********************&&",
"********************************************************************************************************************************",
"********************************************************************************************************************************",
"******&&**************&&******--******&&**************&&******--******&&**************&&******--******&&**************&&******--",
"******&&**************&&******--******&&**************&&******--******&&**************&&******--******&&**************&&******--",
"**************&&****----**********************&&****----**********************&&****----**********************&&****----********",
"**************&&****----**********************&&****----**********************&&****----**********************&&****----********",
"******************&&----**************************&&----**************************&&----**************************&&----********",
"******************&&----**************************&&----**************************&&----**************************&&----********",
"**--******************************--******************************--******************************--****************************",
"**--******************************--******************************--******************************--****************************",
"********----****************************----****************************----****************************----********************",
"********----****************************----****************************----****************************----********************",
"**&&****----**********************&&****----**********************&&****----**********************&&****----********************",
"**&&****----**********************&&****----**********************&&****----**********************&&****----********************",
"**************&&**--****&&********************&&**--****&&********************&&**--****&&********************&&**--****&&******",
"**************&&**--****&&********************&&**--****&&********************&&**--****&&********************&&**--****&&******",
"********************************************************************************************************************************",
"********************************************************************************************************************************",
"******&&******--******&&**************&&******--******&&**************&&******--******&&**************&&******--******&&********",
"******&&******--******&&**************&&******--******&&OOOOOOOOOOOOOOOO******--******&&**************&&******--******&&********",
"****----**********************&&****----****************OOOOOOOOOOOOOOOO**********************&&****----**********************&&",
"****----**********************&&****----****************OOOOOOOOOOOOOOOO**********************&&****----**********************&&",
"**&&----**************************&&----****************OOOOOOOOOOOOOOOO**************************&&----************************",
"**&&----**************************&&----********OOOOOOOO================OOOOOOOO******************&&----************************",
"******************--****************************OOOOOOOO================OOOOOOOO**--******************************--************",
"******************--****************************OOOOOOOO================OOOOOOOO**--******************************--************",
"************************----********************OOOOOOOO================OOOOOOOO********----****************************----****",
"************************----************OOOOOOOO@@@@========================@@@@OOOOOOOO----****************************----****",
"******************&&****----************OOOOOOOO@@@@========================@@@@OOOOOOOO----**********************&&****----****",
"******************&&****----************OOOOOOOO@@@@========================@@@@OOOOOOOO----**********************&&****----****",
"**--****&&********************&&**--****OOOOOOOO@@@@========================@@@@OOOOOOOO******&&**--****&&********************&&",
"**--****&&********************&&**--OOOO====XXXX####========================####XXXX====OOOO**&&**--****&&********************&&",
"************************************OOOO====XXXX####========================####XXXX====OOOO************************************",
"************************************OOOO====XXXX####========================####XXXX====OOOO************************************",
"******&&**************&&******--****OOOO====XXXX####========================####XXXX====OOOO**--******&&**************&&******--",
"******&&**************&&******--OOOO========XXXX########================########XXXX========OOOO******&&**************&&******--",
"**************&&****----********OOOO========XXXX########================########XXXX========OOOO**************&&****----********",
"**************&&****----********OOOO========XXXX########================########XXXX========OOOO**************&&****----********",
"******************&&----********OOOO========XXXX########================########XXXX========OOOO******************&&----********",
"******************&&----********OOOO====####++++XXXX########################XXXX++++####====OOOO******************&&----********",
"**--****************************OOOO====####++++XXXX########################XXXX++++####====OOOO**--****************************",
"**--****************************OOOO====####++++XXXX########################XXXX++++####====OOOO**--****************************",
"********----********************OOOO====####++++XXXX########################XXXX++++####====OOOO********----********************",
"********----********************OOOO####========++++XXXXXXXXXXXXXXXXXXXXXXXX++++========####OOOO********----********************",
"**&&****----********************OOOO####========++++XXXXXXXXXXXXXXXXXXXXXXXX++++========####OOOO**&&****----********************",
"**&&****----********************OOOO####========++++XXXXXXXXXXXXXXXXXXXXXXXX++++========####OOOO**&&****----********************",
"**************&&**--****&&******OOOO####========++++XXXXXXXXXXXXXXXXXXXXXXXX++++========####OOOO**************&&**--****&&******",
"**************&&**--****&&**********    ####====####====####========####====####====####    ******************&&**--****&&******",
"************************************    ####====####====####========####====####====####    ************************************",
"************************************    ####====####====####========####====####====####    ************************************",
"******&&******--******&&************    ####====####====####========####====####====####    **********&&******--******&&********",
"******&&******--******&&**************&&        oooo####====########====####oooooooo    **************&&******--******&&********",
"****----**********************&&****----        oooo####====########====####oooooooo    ******&&****----**********************&&",
"****----**********************&&****----        oooo####====########====####oooooooo    ******&&****----**********************&&",
"**&&----**************************&&----        oooo####====########====####oooooooo    **********&&----************************",
"**&&----**************************&&----    OOOO                OOOOOOOO    ########oooo**********&&----************************",
"******************--********************    OOOO                OOOOOOOO    ########oooo**************************--************",
"******************--********************    OOOO                OOOOOOOO    ########oooo**************************--************",
"************************----************    OOOO                OOOOOOOO    ########oooo----****************************----****",
"************************----****************    OOOO####====@@@@####====oooo====oooo****----****************************----****",
"******************&&****----****************    OOOO####====@@@@####====oooo====oooo****----**********************&&****----****",
"******************&&****----****************    OOOO####====@@@@####====oooo====oooo****----**********************&&****----****",
"**--****&&********************&&**--****&&**    OOOO####====@@@@####====oooo====oooo**********&&**--****&&********************&&",
"**--****&&********************&&**--****&&******    ooooOOOO################oooo**************&&**--****&&********************&&",
"************************************************    ooooOOOO################oooo************************************************",
"************************************************    ooooOOOO################oooo************************************************",
"******&&**************&&******--******&&********    ooooOOOO################oooo******&&******--******&&**************&&******--",
"******&&**************&&******--******&&********%%%%%%%%;;;;        oooooooo%%%%******&&******--******&&**************&&******--",
"**************&&****----**********************&&%%%%%%%%;;;;        oooooooo%%%%****----**********************&&****----********",
"**************&&****----**********************&&%%%%%%%%;;;;        oooooooo%%%%****----**********************&&****----********",
"******************&&----************************%%%%%%%%;;;;        oooooooo%%%%**&&----**************************&&----********",
"******************&&----************************%%%%;;;;    ========%%%%;;;;%%%%**&&----**************************&&----********",
"**--******************************--************%%%%;;;;    ========%%%%;;;;%%%%******************--****************************",
"**--******************************--************%%%%;;;;    ========%%%%;;;;%%%%******************--****************************",
"********----****************************----****%%%%;;;;    ========%%%%;;;;%%%%************************----********************",
"********----****************************----****%%%%;;;;    ========%%%%;;;;oooo************************----********************",
"**&&****----**********************&&****----****%%%%;;;;    ========%%%%;;;;oooo******************&&****----********************",
"**&&****----**********************&&****----****%%%%;;;;    ========%%%%;;;;oooo******************&&****----********************",
"**************&&**--****&&********************&&%%%%;;;;    ========%%%%;;;;oooo**--****&&********************&&**--****&&******",
"**************&&**--****&&********************&&**--        ########        **&&**--****&&********************&&**--****&&******",
"****************************************************        ########        ****************************************************",
"****************************************************        ########        ****************************************************",
"******&&******--******&&**************&&******--****        ########        **--******&&**************&&******--******&&********",
"******&&******--******&&**************&&******--****....$$$$oooooooo$$$$....**--******&&**************&&******--******&&********",
"****----**********************&&****----************....$$$$oooooooo$$$$....******************&&****----**********************&&",
"****----**********************&&****----************....$$$$oooooooo$$$$....******************&&****----**********************&&",
"**&&----**************************&&----************....$$$$oooooooo$$$$....**********************&&----************************",
"**&&----**************************&&----****************    ############    **********************&&----************************",
"******************--******************************--****    ############    ******--******************************--************",
"******************--******************************--****    ############    ******--******************************--************",
"************************----****************************    ############    ************----****************************----****",
"************************----****************************----            ****************----****************************----****",
"******************&&****----**********************&&****----            **********&&****----**********************&&****----****",
"******************&&****----**********************&&****----            **********&&****----**********************&&****----****",
"**--****&&********************&&**--****&&******************            &&********************&&**--****&&********************&&",
"**--****&&********************&&**--****&&********************&&**--****&&********************&&**--****&&********************&&",
"********************************************************************************************************************************",
"********************************************************************************************************************************",
"******&&**************&&******--******&&**************&&******--******&&**************&&******--******&&**************&&******--",
"******&&**************&&******--******&&**************&&******--******&&**************&&******--******&&**************&&******--",
"**************&&****----**********************&&****----**********************&&****----**********************&&****----********",
"**************&&****----**********************&&****----**********************&&****----**********************&&****----********",
"******************&&----**************************&&----**************************&&----**************************&&----********",
"******************&&----**************************&&----**************************&&----**************************&&----********",
"**--******************************--******************************--******************************--****************************",
"**--******************************--******************************--******************************--****************************",
"********----****************************----****************************----****************************----********************",
"********----****************************----****************************----****************************----********************",
"**&&****----**********************&&****----**********************&&****----**********************&&****----********************",
"**&&****----**********************&&****----**********************&&****----**********************&&****----********************",
"**************&&**--****&&********************&&**--****&&********************&&**--****&&********************&&**--****&&******",
"**************&&**--****&&********************&&**--****&&********************&&**--****&&********************&&**--****&&******",
"********************************************************************************************************************************",
"********************************************************************************************************************************",
"******&&******--******&&**************&&******--******&&**************&&******--******&&**************&&******--******&&********",
"******&&******--******&&**************&&******--******&&**************&&******--******&&**************&&******--******&&********",
"****----**********************&&****----**********************&&****----**********************&&****----**********************&&",
"****----**********************&&****----**********************&&****----**********************&&****----**********************&&",
"**&&----**************************&&----**************************&&----**************************&&----************************",
"**&&----**************************&&----**************************&&----**************************&&----************************",
"******************--******************************--******************************--******************************--************"
};
